<svg width="68" height="67" viewBox="0 0 68 67" fill="none" xmlns="http://www.w3.org/2000/svg">
<g clip-path="url(#clip0_259_229)">
<path d="M67.8399 21.4327C67.2976 17.2256 65.3963 13.4108 62.3411 10.4005C54.8098 2.98019 42.5556 2.98006 35.0243 10.4005L34.0018 11.4079C33.8526 11.2618 33.1203 10.5441 32.9739 10.4006C29.3257 6.80524 24.4751 4.8252 19.3159 4.8252C14.1567 4.8252 9.30605 6.80511 5.65685 10.4008C-1.99839 17.9467 -1.92681 30.3602 6.13309 37.7529C5.64649 40.6069 7.89195 43.1475 10.7818 43.1156C10.7531 45.7203 12.8959 47.7882 15.497 47.7583C15.4809 49.0508 15.9986 50.2118 16.8602 51.0608C18.4812 52.6599 20.96 52.8137 22.7427 51.637C22.9676 52.3114 23.3503 52.9296 23.8746 53.4462L31.3701 60.8314C32.279 61.7269 33.4726 62.1746 34.6664 62.1746C37.2606 62.1746 39.3547 60.097 39.3246 57.5302C41.971 57.5606 44.0692 55.4456 44.0392 52.885C46.6917 52.9153 48.7847 50.7933 48.7538 48.2378C50.0094 48.2527 51.1934 47.7785 52.0757 46.9247C52.1387 46.8666 62.0798 37.5607 62.3165 37.339C62.3246 37.3313 62.3329 37.3236 62.341 37.3156C66.6016 33.1176 68.6058 27.3281 67.8399 21.4327ZM2.65707 23.8574C2.65707 23.1525 2.70275 22.4489 2.79306 21.7625C3.26066 18.1374 4.9004 14.8483 7.53524 12.2511C10.6824 9.1501 14.8663 7.44236 19.3159 7.44236C23.7655 7.44236 27.949 9.1501 31.0957 12.2511C38.3904 19.4319 28.7213 9.90616 38.758 19.7955C39.8027 20.8248 39.8023 22.4903 38.758 23.5192C37.7168 24.5452 36.0254 24.5503 34.9788 23.5192L28.1092 16.7507C27.6449 16.2935 26.9182 16.2449 26.3973 16.6131C26.356 16.6421 26.2633 16.7172 26.2012 16.7825C6.53602 36.1595 7.43656 35.2691 7.38955 35.3197C4.33611 32.2374 2.65707 28.175 2.65707 23.8574ZM36.0849 58.9808C35.3009 59.7532 34.0325 59.7532 33.2486 58.9808L25.753 51.5956C24.9694 50.8235 24.9689 49.5734 25.7531 48.801C26.5346 48.0306 27.8074 48.0304 28.5894 48.801L36.0849 56.1861C36.8667 56.9568 36.8668 58.2105 36.0849 58.9808ZM40.7994 54.3356C40.0158 55.1077 38.7471 55.1083 37.9631 54.3356L30.4675 46.9503C29.6837 46.178 29.6837 44.9282 30.4676 44.1557C31.2492 43.3854 32.522 43.3852 33.3038 44.1557L40.7994 51.5409C41.5813 52.3116 41.5814 53.5653 40.7994 54.3356ZM45.514 49.6904C45.514 49.6904 45.5139 49.6904 45.5139 49.6905C44.7303 50.4625 43.4615 50.463 42.6776 49.6904L35.1819 42.3051C34.3999 41.5347 34.4 40.281 35.1818 39.5105C35.9636 38.7405 37.2363 38.7397 38.0182 39.5105L45.5139 46.8959C46.2959 47.6664 46.2959 48.92 45.514 49.6904ZM47.3921 45.0453L39.8965 37.6599C39.1144 36.8894 39.1144 35.6357 39.8965 34.8654C40.6802 34.0933 41.949 34.0927 42.7328 34.8654L50.2284 42.2507C51.0122 43.023 51.0122 44.2728 50.2283 45.0453C49.4467 45.8157 48.1741 45.816 47.3921 45.0453ZM60.4745 35.4535L53.2429 42.2228C53.0186 41.5432 52.6343 40.9199 52.1065 40.4L44.6111 33.0148C43.7306 32.1472 42.56 31.6694 41.3147 31.6694C38.704 31.6694 36.6255 33.7676 36.6566 36.318C34.0344 36.2871 31.9107 38.3775 31.942 40.9632C29.3454 40.9326 27.1957 42.9963 27.2254 45.6085C26.0708 45.5954 24.9128 46.0011 24.008 46.8256C23.89 46.9187 24.0023 46.8238 21.5743 49.2112C20.7915 49.9832 19.5514 49.9712 18.7765 49.2469C17.9638 48.4874 17.9362 47.208 18.739 46.4167L31.763 33.5854C32.2818 33.0745 32.2818 32.246 31.7632 31.7349C31.2448 31.2241 30.4038 31.2238 29.885 31.7349L16.8609 44.5662C16.0792 45.3364 14.8064 45.3364 14.0241 44.5662C13.2449 43.7985 13.2365 42.5486 14.0239 41.771L27.0479 28.9398C27.5667 28.4288 27.5667 27.6004 27.0481 27.0893C26.5297 26.5785 25.6887 26.5782 25.1699 27.0892L12.1453 39.9209C11.3692 40.6863 10.101 40.7003 9.31004 39.9202C7.90523 38.5365 9.36502 37.1853 9.40778 37.0302L27.1714 19.5277L33.1006 25.3697C35.1863 27.4248 38.5578 27.4176 40.6362 25.3697C42.7186 23.3179 42.7189 19.997 40.6362 17.9449L35.88 13.2584L36.9024 12.251C43.3979 5.85107 53.9671 5.85107 60.4629 12.251C63.0978 14.8472 64.7377 18.1362 65.2052 21.7637C65.8653 26.8453 64.1413 31.8339 60.4745 35.4535Z" fill="#304049"/>
</g>
<defs>
<clipPath id="clip0_259_229">
<rect width="68" height="67" fill="white"/>
</clipPath>
</defs>
</svg>
