<svg width="75" height="68" viewBox="0 0 75 68" fill="none" xmlns="http://www.w3.org/2000/svg">
<path fill-rule="evenodd" clip-rule="evenodd" d="M67.8588 40.3421C67.8588 40.5483 67.7744 40.7376 67.6389 40.8751C67.5035 41.0115 67.317 41.0975 67.1132 41.0975H64.0992C63.8951 41.0975 63.7089 41.0115 63.5732 40.8751C63.4377 40.7376 63.3536 40.5483 63.3536 40.3421V29.0447C63.3536 28.8381 63.4377 28.6492 63.5732 28.5116C63.7089 28.3739 63.8951 28.2892 64.0992 28.2892H67.1132C67.317 28.2892 67.5035 28.3739 67.6389 28.5116C67.7744 28.6492 67.8588 28.8381 67.8588 29.0447V40.3421ZM61.3946 39.3111L53.9126 40.1987C53.6145 39.6126 53.2646 39.1668 52.863 38.8599C52.4733 38.5635 52.0476 38.3982 51.5856 38.3647C51.1557 38.3329 50.7099 38.4216 50.2481 38.6295C49.3085 39.0531 48.2747 40.0177 47.1464 41.5248L44.214 44.4636C44.1818 44.4952 44.1524 44.519 44.1249 44.5361C44.0957 44.5534 44.063 44.5678 44.0259 44.58C42.8168 44.9542 41.8686 45.2906 41.0613 45.5762C38.1225 46.6163 37.251 46.9244 34.0484 44.9954C34.6896 44.7096 35.3283 44.4488 35.9654 44.2122C37.1318 43.7794 38.2955 43.4248 39.4571 43.1495C39.567 43.1231 39.6684 43.0793 39.759 43.0211C40.419 42.5965 40.8828 41.961 41.109 41.2482C41.3348 40.5362 41.3222 39.7476 41.03 39.0131C39.8336 36.0084 35.2721 37.0364 32.6796 37.6198C32.4447 37.6727 32.2293 37.7218 31.9977 37.7695C30.674 38.0472 29.3999 38.3858 28.1757 38.7858C26.9661 39.1813 25.8008 39.6392 24.6795 40.1579C22.2252 40.9449 19.9959 41.481 17.9924 41.7654C17.8943 41.7788 17.7995 41.7893 17.702 41.8027C17.6742 41.6199 17.7036 41.4228 17.7945 41.2111C18.0494 40.6172 18.6639 39.9223 19.6373 39.1297L35.22 31.446C37.0398 31.8775 38.4294 32.0468 39.4815 31.7372C40.7078 31.3747 41.4098 30.5265 41.6456 28.9729C45.5063 30.3715 48.3632 31.7623 50.4455 32.7772L50.7239 32.9122C51.6074 33.342 52.8927 33.7708 53.9378 33.7774C54.5184 33.7816 55.0551 33.6597 55.4844 33.3568C55.9883 32.9994 56.2967 32.4595 56.3073 31.6829C56.316 31.0596 56.1044 30.2566 55.589 29.2312C56.2361 29.3105 56.904 29.3846 57.5949 29.4508C58.8155 29.5685 60.0851 29.6557 61.3947 29.7126V39.3111H61.3946ZM49.785 46.447C51.6995 44.5549 52.518 42.815 52.2416 41.2284C52.0646 40.8485 51.8813 40.5851 51.6923 40.441C51.6126 40.3802 51.531 40.3472 51.4478 40.3419C51.3323 40.3325 51.1949 40.3641 51.0359 40.4357C50.3955 40.7241 49.6026 41.5049 48.6579 42.7764C48.6282 42.8176 48.596 42.8545 48.5615 42.8888H48.5621L45.5831 45.8741C45.4425 46.0156 45.2931 46.1333 45.1274 46.2339C44.9633 46.3333 44.7873 46.4113 44.5922 46.4709C43.4706 46.8203 42.5162 47.1576 41.7041 47.4446C37.5974 48.8974 36.7877 49.1847 31.4765 45.6995C31.0242 45.4017 30.8955 44.7888 31.1894 44.3312C31.2881 44.1775 31.4216 44.0612 31.5728 43.9845L31.5719 43.9819C32.8091 43.3576 34.0494 42.8136 35.2916 42.3518C36.4715 41.9138 37.6494 41.5512 38.8254 41.2641C39.0288 41.0987 39.1737 40.8817 39.2495 40.6433C39.3392 40.3603 39.3333 40.0455 39.2163 39.7503C38.6399 38.3027 35.1072 39.098 33.1001 39.5506C32.822 39.6126 32.5679 39.671 32.3876 39.7082C31.139 39.9688 29.9339 40.2904 28.7723 40.6698C27.614 41.0484 26.5035 41.485 25.4406 41.9799C25.3929 42.0012 25.3439 42.0199 25.2948 42.0328C22.7118 42.8636 20.3666 43.4275 18.2598 43.7265C17.9186 43.7739 17.5857 43.8138 17.2563 43.8481C17.2499 43.8493 17.2434 43.8493 17.2367 43.8493C15.9339 43.9857 14.7231 44.0135 13.6041 43.934V53.5351L39.6891 53.0481C44.3112 50.7314 47.6769 48.5311 49.785 46.447ZM18.003 24.8235L34.4664 29.2139C34.7555 29.2906 35.0319 29.3633 35.2974 29.4295C35.3226 29.4349 35.3471 29.44 35.3715 29.4482C37.025 29.8594 38.2175 30.0503 38.9381 29.8372C39.4451 29.6875 39.7131 29.1649 39.7718 28.1105C38.5302 27.2319 37.0853 26.5066 35.4326 25.9378C33.5705 25.2971 31.4567 24.8553 29.0915 24.6121C28.5551 24.559 28.1628 24.0747 28.2153 23.5307C28.2683 22.9869 28.7463 22.59 29.283 22.643C31.8057 22.9022 34.0646 23.3745 36.0599 24.0617C38.0229 24.7376 39.7371 25.6241 41.2065 26.7195C45.6914 28.2692 48.9611 29.8609 51.2871 30.9936L51.5655 31.13C52.2519 31.4633 53.2173 31.7966 53.9453 31.8006C54.1464 31.8023 54.2994 31.7836 54.3671 31.7358C54.3741 31.7305 54.3552 31.7197 54.3561 31.6603C54.3609 31.2952 54.1683 30.7104 53.6922 29.8345C53.4651 29.4174 53.1942 28.9954 52.8839 28.5682C52.8755 28.5562 52.8674 28.5457 52.8594 28.5335C51.8585 27.1643 50.4368 25.7445 48.6311 24.2743C46.22 22.3118 43.1436 20.2755 39.4878 18.1679C38.4344 17.9639 31.9352 16.752 18.0027 14.9248V24.8235H18.003ZM11.6457 54.1716C11.6457 54.3782 11.5616 54.5675 11.4261 54.7038C11.2904 54.8415 11.1042 54.9274 10.9001 54.9274H7.88599C7.68184 54.9274 7.49569 54.8415 7.36024 54.7038C7.22449 54.5675 7.14034 54.3782 7.14034 54.1716V42.8745C7.14034 42.6666 7.22449 42.4787 7.36024 42.3412C7.49569 42.2035 7.68184 42.119 7.88599 42.119H10.8999C11.1041 42.119 11.2902 42.2035 11.426 42.3412C11.5614 42.4787 11.6456 42.6668 11.6456 42.8745L11.6457 54.1716ZM16.0442 25.1252C16.0442 25.3318 15.96 25.5207 15.8246 25.6583C15.6887 25.7958 15.5027 25.8808 15.2985 25.8808H12.2844C12.0803 25.8808 11.8941 25.7958 11.7587 25.6583C11.6229 25.5206 11.5388 25.3318 11.5388 25.1252V13.828C11.5388 13.6214 11.6229 13.4322 11.7587 13.2946C11.8941 13.1582 12.0803 13.0724 12.2844 13.0724H15.2984C15.5025 13.0724 15.6887 13.1582 15.8244 13.2946C15.9599 13.4323 16.044 13.6214 16.044 13.828L16.0442 25.1252ZM69.0236 27.1087C68.534 26.6124 67.8575 26.3043 67.113 26.3043H64.0991C63.3542 26.3043 62.6778 26.6124 62.1882 27.1087C62.0028 27.2965 61.8441 27.511 61.7183 27.748C60.3597 27.6923 59.0433 27.602 57.7782 27.4818C56.5602 27.3654 55.3632 27.2144 54.194 27.0412C53.1075 25.6291 51.6516 24.1936 49.8552 22.7315C47.3306 20.6766 44.1186 18.5543 40.3095 16.3644C40.2141 16.3089 40.1133 16.2718 40.0109 16.2519H40.0112C39.9918 16.248 33.5475 14.9617 17.8428 12.9094C17.7065 12.5244 17.4897 12.1763 17.2091 11.8918C16.7195 11.3957 16.043 11.0874 15.2982 11.0874H12.2844C11.5397 11.0874 10.8632 11.3957 10.3736 11.8918C9.88399 12.3879 9.58009 13.0734 9.58009 13.8278V25.1251C9.58009 25.8791 9.88384 26.5648 10.3736 27.0611C10.8632 27.5572 11.5397 27.8655 12.2844 27.8655H15.2984C16.0431 27.8655 16.7196 27.5572 17.2092 27.0611C17.3096 26.9603 17.3993 26.8492 17.4831 26.7329L32.2949 30.6826L18.6875 37.391C18.6053 37.4322 18.531 37.4834 18.4659 37.5419C17.2131 38.5556 16.3925 39.5149 16.0038 40.4196C15.77 40.9648 15.6803 41.4848 15.7319 41.9796C14.9187 42.0153 14.1536 42.0009 13.4369 41.9349C13.3001 41.5578 13.0862 41.2161 12.8108 40.937C12.3212 40.4409 11.6448 40.1338 10.8999 40.1338H7.88599C7.14124 40.1338 6.46474 40.4407 5.97514 40.937C5.48554 41.4331 5.18164 42.1187 5.18164 42.8742V54.1713C5.18164 54.9257 5.48554 55.6111 5.97514 56.1072C6.46474 56.6033 7.14124 56.9118 7.88599 56.9118H10.8999C11.6448 56.9118 12.3212 56.6035 12.8108 56.1072C12.9824 55.9327 13.1294 55.7353 13.2504 55.5199L39.9401 55.0207C40.1013 55.0194 40.253 54.9772 40.3862 54.9043C45.2844 52.4604 48.8717 50.1142 51.1473 47.8647C53.1108 45.9238 54.1413 44.0212 54.2409 42.1556L61.5645 41.2862C61.7013 41.6622 61.9142 41.9993 62.1882 42.2772C62.678 42.7733 63.3543 43.0816 64.0991 43.0816H67.113C67.8575 43.0816 68.5338 42.7735 69.0236 42.2772C69.5132 41.7811 69.8174 41.0955 69.8174 40.3416V29.0442C69.8174 28.2905 69.5132 27.6048 69.0236 27.1087Z" fill="#304049"/>
</svg>
