<svg width="68" height="67" viewBox="0 0 68 67" fill="none" xmlns="http://www.w3.org/2000/svg">
<g clip-path="url(#clip0_259_216)">
<path d="M27.5708 57.4444L21.551 55.288L21.2671 53.5473C23.5216 52.1473 25.1017 49.7868 25.4101 47.0522H26.463C28.1108 47.0522 29.4513 45.7313 29.4513 44.1079V43.1265C29.4513 41.847 28.6184 40.7561 27.4591 40.3509V37.8921C27.4591 31.9393 22.5439 27.0962 16.5021 27.0962C10.4603 27.0962 5.54505 31.9393 5.54505 37.8921V40.3509C4.38573 40.7561 3.55287 41.847 3.55287 43.1265V44.1079C3.55287 45.7313 4.89334 47.0522 6.54115 47.0522H7.59395C7.90234 49.7867 9.48241 52.1473 11.7369 53.5473L11.4531 55.288L5.43323 57.4444C2.81642 58.3818 0 60.8503 0 64.0553V66.9997H33.0039V64.0553C33.004 60.8504 30.1876 58.3819 27.5708 57.4444ZM27.4591 43.1266V44.108C27.4591 44.6493 27.0122 45.0895 26.463 45.0895H25.4668V42.1451H26.463C27.0122 42.1451 27.4591 42.5854 27.4591 43.1266ZM7.53724 45.0895H6.54115C5.99197 45.0895 5.54505 44.6493 5.54505 44.108V43.1266C5.54505 42.5854 5.99184 42.1451 6.54115 42.1451H7.53724V45.0895ZM7.53724 40.1823V37.8922C7.53724 33.0216 11.5588 29.0592 16.5021 29.0592C21.4454 29.0592 25.4669 33.0216 25.4669 37.8922V40.1823H20.4863C18.8387 40.1823 17.498 38.8614 17.498 37.2379H15.5059C15.5059 38.8614 14.1654 40.1823 12.5176 40.1823H7.53724ZM9.52943 46.0709V42.1451H12.5177C14.1451 42.1451 15.5927 41.3722 16.5021 40.1792C17.4115 41.3722 18.859 42.1451 20.4865 42.1451H23.4747V46.0709C23.4747 49.859 20.3469 52.941 16.5022 52.941C12.6576 52.941 9.52943 49.859 9.52943 46.0709ZM19.6625 56.0809C19.6257 57.7677 18.2227 59.1289 16.502 59.1289C14.7814 59.1289 13.3783 57.7677 13.3414 56.081L13.6106 54.4298C14.5184 54.7355 15.4903 54.9039 16.502 54.9039C17.5135 54.9039 18.4854 54.7355 19.3931 54.4298L19.6625 56.0809ZM31.0117 65.0368H1.99219V64.0553C1.99219 61.8955 4.06552 60.0229 6.11389 59.2892L11.5299 57.349C12.1267 59.5033 14.1291 61.0919 16.5021 61.0919C18.875 61.0919 20.8775 59.5033 21.4743 57.349L26.8903 59.2892C28.9385 60.0228 31.012 61.8956 31.012 64.0553L31.0117 65.0368Z" fill="#304049"/>
<path d="M63.9027 58.0519C66.4295 55.1051 65.7662 52.6611 65.1204 50.29C64.7894 49.0751 64.4473 47.8188 64.4473 46.3595V39.8552C64.4473 32.82 58.6383 27.0964 51.4982 27.0964C44.358 27.0964 38.5491 32.82 38.5491 39.8552V46.3595C38.5491 47.8188 38.207 49.0751 37.876 50.29C37.2301 52.6611 36.5669 55.1049 39.0936 58.0517C36.9372 59.2427 34.9961 61.3948 34.9961 64.0554V66.9998H60.0315V65.0369H36.9884V64.0554C36.9883 61.8956 39.0618 60.023 41.11 59.2893L46.5258 57.3492C47.1227 59.5034 49.1251 61.0919 51.498 61.0919C53.871 61.0919 55.8734 59.5032 56.4703 57.349L61.8862 59.2893C63.9345 60.0229 66.0079 61.8957 66.0078 64.0554V65.0369H62.0237V66.9998H68.0001V64.0554C68.0001 61.3949 66.0591 59.2428 63.9027 58.0519ZM51.4982 59.129C49.7776 59.129 48.3744 57.7679 48.3376 56.0811L48.607 54.4298C49.5148 54.7355 50.4867 54.9039 51.4983 54.9039C52.5099 54.9039 53.4817 54.7355 54.3896 54.4298L54.6589 56.0801C54.6223 57.7673 53.219 59.129 51.4982 59.129ZM51.4982 52.941C47.6535 52.941 44.5257 49.859 44.5257 46.0709V42.1451H47.5138C49.1412 42.1451 50.5887 41.3721 51.4982 40.1792C52.4077 41.3721 53.8552 42.1451 55.4826 42.1451H58.4707V46.0709C58.4707 49.859 55.3428 52.941 51.4982 52.941ZM61.9742 57.232L56.5471 55.288L56.2632 53.5473C58.7836 51.9822 60.4629 49.2169 60.4629 46.0708V40.1821H55.4826C53.8349 40.1821 52.4943 38.8612 52.4943 37.2378H50.5021C50.5021 38.8612 49.1615 40.1821 47.5138 40.1821H42.5335V46.0708C42.5335 49.2168 44.2126 51.9821 46.733 53.5472L46.4492 55.2879L41.0223 57.2319C38.6977 54.853 39.1426 53.2127 39.8003 50.7986C40.1478 49.5231 40.5416 48.0774 40.5416 46.3592V39.855C40.5416 33.9022 45.4568 29.0591 51.4984 29.0591C57.5401 29.0591 62.4553 33.9022 62.4553 39.855V46.3592C62.4553 48.0774 62.8491 49.5231 63.1966 50.7985C63.854 53.2128 64.2988 54.8532 61.9742 57.232Z" fill="#304049"/>
<path d="M22.3637 22.7621L32.8956 30.4134L35.5122 17.9443L29.1115 15.4198L33.562 2.9503L32.9789 2.51833C29.3405 -0.177762 26.0584 -0.229713 23.9458 0.201338C21.0806 0.786148 18.5587 2.64252 17.0268 5.29452L18.7581 6.26549C20.007 4.10356 22.0453 2.59384 24.3499 2.12353C26.6034 1.66356 28.9559 2.19943 31.1918 3.67421L26.5989 16.5431L33.2236 19.1561L31.5744 27.0149L23.5459 21.1825C20.8424 19.2183 19.0134 16.9452 18.11 14.426C17.3344 12.2633 17.2964 10.0209 18.0002 7.94102L16.1103 7.32022C15.265 9.81832 15.307 12.5016 16.2318 15.08C17.2704 17.976 19.3335 20.5607 22.3637 22.7621Z" fill="#304049"/>
<path d="M50.5846 4.66679C49.1249 2.48759 46.9796 0.94188 44.544 0.314409C41.8702 -0.374435 39.0535 0.073497 36.4 1.61018L36.0859 1.79207L31.623 14.2966L37.7994 16.7328L34.8971 30.5632L45.6356 22.7622C53.5246 17.0312 53.7313 9.36464 50.5846 4.66679ZM37.9012 25.9423L40.088 15.5211L34.1357 13.1733L37.7206 3.12867C39.8132 2.00276 41.9913 1.68582 44.0401 2.21357C45.9996 2.71817 47.7335 3.9735 48.922 5.74808C50.347 7.87559 50.8303 10.4683 50.2828 13.0487C49.6432 16.064 47.6274 18.8765 44.4533 21.1824L37.9012 25.9423Z" fill="#304049"/>
<path d="M41.1055 4.22241H43.0977V6.18543H41.1055V4.22241Z" fill="#304049"/>
<path d="M45.0898 6.1853H47.082V8.14819H45.0898V6.1853Z" fill="#304049"/>
</g>
<defs>
<clipPath id="clip0_259_216">
<rect width="68" height="67" fill="white"/>
</clipPath>
</defs>
</svg>
