<svg width="25" height="24" viewBox="0 0 25 24" fill="none" xmlns="http://www.w3.org/2000/svg">
<path d="M12.5039 17.1892C13.7919 17.1892 15.1836 16.9738 16.6789 16.5431C18.1743 16.1122 20.2319 15.3321 22.8516 14.2028C22.9209 13.9068 22.9673 13.6142 22.9908 13.3249C23.0145 13.0354 23.0263 12.7343 23.0263 12.4216C23.0263 12.1838 22.9331 11.9892 22.7467 11.8378C22.5603 11.6865 22.3465 11.6432 22.1053 11.7081C21.7982 11.8162 21.4583 11.9297 21.0855 12.0486C20.7127 12.1676 20.2412 12.3459 19.6711 12.5838C18.1579 13.2108 16.864 13.6486 15.7895 13.8973C14.7149 14.1459 13.6184 14.2703 12.5 14.2703C11.3596 14.2703 10.2412 14.1405 9.14474 13.8811C8.04825 13.6216 6.71053 13.1784 5.13158 12.5514C4.5614 12.3135 4.12281 12.1405 3.81579 12.0324L2.89474 11.7081C2.65351 11.6216 2.43969 11.6595 2.25329 11.8216C2.06689 11.9838 1.97368 12.1838 1.97368 12.4216C1.97368 12.7343 1.98553 13.0374 2.00921 13.331C2.03268 13.6244 2.07906 13.9192 2.14836 14.2155C4.33783 15.2282 6.28914 15.9771 8.0023 16.4621C9.71524 16.9468 11.2158 17.1892 12.5039 17.1892ZM12.4944 22.0541C14.6523 22.0541 16.5591 21.5671 18.2148 20.5933C19.8705 19.6195 21.1226 18.3242 21.9711 16.7076C19.9739 17.5491 18.226 18.1641 16.7273 18.5527C15.2288 18.941 13.8197 19.1351 12.5 19.1351C11.2029 19.1351 9.75888 18.9356 8.16809 18.5364C6.5773 18.1371 4.85746 17.5383 3.00855 16.74C3.83509 18.3651 5.07752 19.657 6.73586 20.6157C8.39397 21.5746 10.3135 22.0541 12.4944 22.0541ZM12.5 9.72973C11.1371 9.72973 9.9739 9.25492 9.01053 8.3053C8.04737 7.35546 7.56579 6.20865 7.56579 4.86486C7.56579 3.52108 8.04737 2.37427 9.01053 1.42443C9.9739 0.47481 11.1371 0 12.5 0C13.8629 0 15.0261 0.47481 15.9895 1.42443C16.9526 2.37427 17.4342 3.52108 17.4342 4.86486C17.4342 6.20865 16.9526 7.35546 15.9895 8.3053C15.0261 9.25492 13.8629 9.72973 12.5 9.72973ZM12.5023 7.78378C13.3172 7.78378 14.014 7.49773 14.5928 6.92562C15.1713 6.35351 15.4605 5.66584 15.4605 4.86259C15.4605 4.05913 15.1704 3.37211 14.5901 2.80151C14.0099 2.23114 13.3124 1.94595 12.4977 1.94595C11.6828 1.94595 10.986 2.232 10.4072 2.80411C9.82873 3.37622 9.53947 4.064 9.53947 4.86746C9.53947 5.6707 9.82961 6.35762 10.4099 6.92822C10.9901 7.49859 11.6876 7.78378 12.5023 7.78378ZM12.4987 24C8.82895 24 5.8284 22.9272 3.49704 20.7817C1.16568 18.6362 0 15.8495 0 12.4216C0 11.5135 0.364364 10.7888 1.09309 10.2474C1.82182 9.70595 2.61809 9.57503 3.48191 9.85459C3.82555 9.96119 4.18531 10.0838 4.56118 10.2224C4.93706 10.361 5.38279 10.5369 5.89836 10.7501C7.36086 11.3373 8.57051 11.7465 9.5273 11.9776C10.4841 12.2088 11.475 12.3243 12.5 12.3243C13.4851 12.3243 14.453 12.2142 15.4036 11.9938C16.3543 11.7735 17.528 11.3739 18.9247 10.7951C19.5438 10.5573 20.0452 10.3648 20.4289 10.2175C20.8127 10.0703 21.1826 9.94259 21.5385 9.83449C22.4021 9.58173 23.195 9.72811 23.9171 10.2736C24.639 10.8191 25 11.5351 25 12.4216C25 14.0465 24.6748 15.56 24.0243 16.9622C23.3741 18.3641 22.4864 19.5874 21.3612 20.6319C20.2362 21.6764 18.9133 22.4989 17.3924 23.0994C15.8716 23.6998 14.2404 24 12.4987 24Z" fill="white"/>
</svg>
