<svg width="25" height="23" viewBox="0 0 25 23" fill="none" xmlns="http://www.w3.org/2000/svg">
<path d="M12.5061 23L9.63026 20.3612C7.8275 18.6922 6.31415 17.2292 5.0902 15.9721C3.86648 14.7153 2.87549 13.5653 2.11723 12.5221C1.35874 11.4791 0.816253 10.5004 0.489752 9.58599C0.163251 8.67159 0 7.72927 0 6.75904C0 4.83464 0.628274 3.22708 1.88482 1.93639C3.14137 0.645461 4.70133 0 6.56471 0C7.71119 0 8.79661 0.276852 9.82097 0.830557C10.8451 1.38426 11.7402 2.17832 12.5061 3.21273C13.2805 2.17832 14.1757 1.38426 15.1915 0.830557C16.2076 0.276852 17.2887 0 18.435 0C20.2983 0 21.8584 0.645461 23.1152 1.93639C24.3717 3.22708 25 4.83464 25 6.75904C25 7.72927 24.8367 8.67159 24.5102 9.58599C24.1835 10.5004 23.641 11.4791 22.8828 12.5221C22.1243 13.5653 21.1332 14.7153 19.9095 15.9721C18.6857 17.2292 17.1724 18.6922 15.3694 20.3612L12.5061 23ZM2.61584 9.41377H22.3966C22.6205 8.93058 22.7821 8.47383 22.8815 8.04353C22.9808 7.61322 23.0305 7.18506 23.0305 6.75904C23.0305 5.40303 22.5806 4.27652 21.6807 3.37952C20.7811 2.48252 19.6992 2.03402 18.435 2.03402C17.3981 2.03402 16.4453 2.34262 15.5765 2.95984C14.708 3.57705 13.9051 4.45936 13.1678 5.60677H11.8322C11.0947 4.45936 10.2917 3.57705 9.42313 2.95984C8.55457 2.34262 7.60177 2.03402 6.56471 2.03402C5.30072 2.03402 4.2188 2.48252 3.31896 3.37952C2.41911 4.27652 1.96918 5.40303 1.96918 6.75904C1.96918 7.18506 2.02105 7.61322 2.12477 8.04353C2.22828 8.47383 2.39197 8.93058 2.61584 9.41377ZM5.98929 14.0035H19.0232C19.4744 13.5149 19.876 13.0634 20.2279 12.6489C20.5795 12.2342 20.8926 11.8338 21.167 11.4478H3.83267C4.11562 11.8338 4.43293 12.2342 4.7846 12.6489C5.13649 13.0634 5.53805 13.5149 5.98929 14.0035ZM12.5061 20.2517C13.395 19.4415 14.2135 18.6908 14.9617 17.9997C15.7101 17.3086 16.394 16.6545 17.0133 16.0376H7.99917C8.61847 16.6545 9.30233 17.3086 10.0507 17.9997C10.7989 18.6908 11.6174 19.4415 12.5061 20.2517Z" fill="white"/>
</svg>
