<svg width="25" height="25" viewBox="0 0 25 25" fill="none" xmlns="http://www.w3.org/2000/svg">
<path d="M9.2135 25C8.04692 25 7.04369 24.5983 6.20381 23.7948C5.36392 22.9913 4.90187 22.0169 4.81764 20.8715C3.47869 20.6687 2.36445 20.0598 1.47491 19.045C0.585361 18.0299 0.140589 16.8399 0.140589 15.475C0.140589 14.9983 0.202911 14.5273 0.327554 14.062C0.451954 13.5967 0.638675 13.1599 0.887719 12.7515C0.591934 12.3249 0.370035 11.8636 0.222021 11.3676C0.0740071 10.8713 0 10.3503 0 9.80463C0 8.41117 0.461205 7.20616 1.38361 6.18963C2.30578 5.17309 3.44765 4.58191 4.80924 4.41608C4.79974 4.3788 4.795 4.34152 4.795 4.30423V4.17859C4.84003 3.00905 5.28992 2.02024 6.14465 1.21214C6.99962 0.404048 8.02258 0 9.2135 0C9.88395 0 10.4814 0.130364 11.0057 0.391094C11.5301 0.651583 12.0282 1.02029 12.5 1.4972C12.9662 1.02029 13.4606 0.651583 13.9833 0.391094C14.5057 0.130364 15.1068 0 15.7865 0C16.9643 0 17.9779 0.402596 18.8272 1.20779C19.6764 2.01322 20.1234 2.9961 20.1685 4.15644V4.28208C20.1685 4.31936 20.1637 4.35665 20.1542 4.39393C21.5158 4.55952 22.6638 5.15215 23.5981 6.17183C24.5327 7.19127 25 8.40221 25 9.80463C25 10.3503 24.9237 10.8713 24.771 11.3676C24.6184 11.8636 24.3941 12.3249 24.098 12.7515C24.3471 13.1594 24.5362 13.596 24.6655 14.0613C24.7948 14.5268 24.8594 14.9981 24.8594 15.475C24.8594 16.8641 24.4109 18.0624 23.5138 19.07C22.6169 20.0773 21.4943 20.6779 20.1458 20.8715C20.0616 22.0169 19.6056 22.9913 18.7779 23.7948C17.9502 24.5983 16.9531 25 15.7865 25C15.1124 25 14.5127 24.8734 13.9873 24.6202C13.462 24.3669 12.9662 23.9973 12.5 23.5111C12.0187 23.9973 11.5169 24.3669 10.9944 24.6202C10.472 24.8734 9.87835 25 9.2135 25ZM13.5955 4.35761V20.6427C13.5955 21.2528 13.8079 21.7685 14.2327 22.1897C14.6575 22.6109 15.1774 22.8216 15.7923 22.8216C16.3783 22.8216 16.8805 22.6045 17.299 22.1705C17.7177 21.7366 17.9439 21.231 17.9775 20.6536C17.3633 20.5253 16.7963 20.293 16.2765 19.9568C15.757 19.6208 15.3081 19.1901 14.9298 18.6648C14.7426 18.4098 14.672 18.1383 14.718 17.8502C14.764 17.5622 14.9161 17.3282 15.1741 17.1483C15.4307 16.9619 15.7055 16.8917 15.9987 16.9377C16.292 16.9834 16.5302 17.1346 16.7133 17.3912C17.0154 17.8282 17.3999 18.1628 17.8668 18.3949C18.3338 18.6271 18.8388 18.7432 19.3819 18.7432C20.2978 18.7432 21.0745 18.4262 21.712 17.7921C22.3496 17.1579 22.6684 16.3855 22.6684 15.475C22.6684 15.2917 22.6506 15.1086 22.6151 14.9256C22.5796 14.7425 22.5233 14.5625 22.4464 14.3856C22.0325 14.6649 21.5761 14.8791 21.077 15.028C20.578 15.1768 20.0598 15.2513 19.5225 15.2513C19.2121 15.2513 18.9519 15.1469 18.7418 14.9383C18.5319 14.7293 18.427 14.4704 18.427 14.1615C18.427 13.8529 18.5319 13.5942 18.7418 13.3855C18.9519 13.1771 19.2121 13.0728 19.5225 13.0728C20.4381 13.0728 21.2148 12.7557 21.8526 12.1214C22.4902 11.4874 22.809 10.7151 22.809 9.80463C22.809 8.90842 22.4948 8.14801 21.8665 7.52342C21.2382 6.89883 20.4756 6.56971 19.5787 6.53606C19.3295 6.98126 19.0012 7.36957 18.5939 7.701C18.1866 8.03242 17.7321 8.29496 17.2304 8.48864C16.9438 8.59661 16.6641 8.58765 16.3912 8.46176C16.1183 8.33587 15.9365 8.12889 15.8457 7.8408C15.7519 7.55586 15.7631 7.27601 15.8792 7.00123C15.9954 6.7267 16.2013 6.54284 16.4971 6.44963C16.9373 6.30075 17.294 6.03627 17.5674 5.65618C17.8408 5.27635 17.9775 4.84107 17.9775 4.35035C17.9775 3.74416 17.7656 3.23069 17.3417 2.80994C16.9181 2.38894 16.3995 2.17844 15.7858 2.17844C15.172 2.17844 14.6535 2.38906 14.2302 2.8103C13.8071 3.23154 13.5955 3.74731 13.5955 4.35761ZM11.4045 20.6427V4.35761C11.4045 3.74731 11.1926 3.23154 10.7687 2.8103C10.3452 2.38906 9.8265 2.17844 9.21278 2.17844C8.59905 2.17844 8.08052 2.38906 7.65717 2.8103C7.23406 3.23154 7.02251 3.74731 7.02251 4.35761C7.02251 4.82872 7.15543 5.25795 7.42127 5.64529C7.68735 6.03263 8.04035 6.30075 8.48025 6.44963C8.76679 6.54284 8.97651 6.7244 9.10943 6.99433C9.24235 7.26427 9.2628 7.54279 9.17078 7.82991C9.0605 8.11678 8.86733 8.32292 8.59126 8.44833C8.3152 8.57397 8.02915 8.58281 7.73312 8.47484C7.23138 8.28116 6.77687 8.02092 6.36959 7.6941C5.96231 7.36727 5.63403 6.98126 5.38474 6.53606C4.51224 6.56971 3.76182 6.90355 3.13349 7.53758C2.50516 8.17162 2.191 8.92875 2.191 9.80899C2.191 10.7166 2.50979 11.4874 3.14737 12.1214C3.78519 12.7557 4.5619 13.0728 5.47749 13.0728C5.78788 13.0728 6.04812 13.1772 6.25822 13.3859C6.46806 13.5948 6.57299 13.8537 6.57299 14.1626C6.57299 14.4713 6.46806 14.7299 6.25822 14.9386C6.04812 15.1471 5.78788 15.2513 5.47749 15.2513C4.94021 15.2513 4.42204 15.1768 3.92298 15.028C3.42392 14.8791 2.96746 14.6649 2.55361 14.3856C2.47668 14.5625 2.42044 14.7425 2.3849 14.9256C2.34936 15.1086 2.33158 15.2917 2.33158 15.475C2.33158 16.3855 2.65038 17.1579 3.28796 17.7921C3.92553 18.4262 4.70224 18.7432 5.61808 18.7432C6.16388 18.7432 6.66878 18.6264 7.13279 18.3928C7.59679 18.1589 7.98143 17.8251 8.28671 17.3912C8.46978 17.1346 8.70799 16.9834 9.00134 16.9377C9.29445 16.8917 9.5693 16.9595 9.82589 17.141C10.0825 17.3226 10.2341 17.5582 10.2809 17.8477C10.3276 18.1375 10.2574 18.4098 10.0702 18.6648C9.68262 19.1901 9.22519 19.6245 8.69789 19.968C8.17083 20.3116 7.6002 20.5476 6.98599 20.6762C7.01959 21.2535 7.25183 21.7554 7.68273 22.1817C8.11338 22.6083 8.62169 22.8216 9.20766 22.8216C9.8226 22.8216 10.3425 22.6109 10.7673 22.1897C11.1921 21.7685 11.4045 21.2528 11.4045 20.6427Z" fill="white"/>
</svg>
