<svg width="51" height="40" viewBox="0 0 51 40" fill="none" xmlns="http://www.w3.org/2000/svg">
<path d="M4.53333 36.1501C1.7 33.0334 0 29.6334 0 23.9667C0 14.0501 7.08333 5.26673 17 0.733398L19.55 4.41673C10.2 9.51673 8.21667 16.0334 7.65 20.2834C9.06667 19.4334 11.05 19.1501 13.0333 19.4334C18.1333 20.0001 22.1 23.9667 22.1 29.3501C22.1 31.9001 20.9667 34.4501 19.2667 36.4334C17.2833 38.4167 15.0167 39.2667 12.1833 39.2667C9.06667 39.2667 6.23333 37.8501 4.53333 36.1501ZM32.8667 36.1501C30.0333 33.0334 28.3333 29.6334 28.3333 23.9667C28.3333 14.0501 35.4167 5.26673 45.3333 0.733398L47.8833 4.41673C38.5333 9.51673 36.55 16.0334 35.9833 20.2834C37.4 19.4334 39.3833 19.1501 41.3667 19.4334C46.4667 20.0001 50.4333 23.9667 50.4333 29.3501C50.4333 31.9001 49.3 34.4501 47.6 36.4334C45.9 38.4167 43.35 39.2667 40.5167 39.2667C37.4 39.2667 34.5667 37.8501 32.8667 36.1501Z" fill="#A04444"/>
</svg>
