<svg width="194" height="40" viewBox="0 0 194 40" fill="none" xmlns="http://www.w3.org/2000/svg">
<mask id="mask0_1_840" style="mask-type:luminance" maskUnits="userSpaceOnUse" x="0" y="0" width="194" height="40">
<path d="M0.0181885 0.903564H193.34V39.4755H0.0181885V0.903564Z" fill="white"/>
</mask>
<g mask="url(#mask0_1_840)">
<path d="M6.02083 23.6468H7.95404C11.5853 23.6468 13.2844 21.9026 13.2844 18.3165V6.37349C13.2844 2.7906 11.5928 1.04211 7.95404 1.04211H0.0181885V34.9195H6.02083V23.6468ZM7.32467 6.46478V18.2252C7.32467 18.5796 7.17861 18.7085 6.84137 18.7085H6.02083V5.98362H6.84137C7.17861 5.98362 7.32467 6.12969 7.32467 6.46692V6.46478ZM20.8959 17.4068H26.2691V11.3655C26.2691 8.12197 24.6237 6.47552 21.3792 6.47552H19.2075C15.9672 6.47552 14.3208 8.1209 14.3208 11.3655V17.3584C14.3208 19.6321 15.0318 20.7942 17.5202 22.1485L20.1816 23.7466C20.6649 24.0388 20.8099 24.2299 20.8099 24.7132V30.0865C20.8099 30.3743 20.7143 30.4742 20.4233 30.4742H20.0259C19.7338 30.4742 19.6382 30.3743 19.6382 30.0876V23.9389H14.2649V30.2787C14.2649 33.5223 15.9103 35.1687 19.1549 35.1687H21.3394C24.6302 35.1687 26.2262 33.5233 26.2262 30.2787V24.0849C26.2262 21.764 25.5152 20.6481 23.0278 19.1982L20.3664 17.6989C19.8831 17.4068 19.737 17.2113 19.737 16.728V11.5008C19.737 11.213 19.8337 11.1142 20.1236 11.1142H20.5124C20.8024 11.1142 20.8991 11.213 20.8991 11.5008V17.4078L20.8959 17.4068ZM47.8911 18.9566H53.4061V11.359C53.4061 8.11445 51.7607 6.46907 48.5194 6.46907H45.9536C42.7133 6.46907 41.0668 8.11445 41.0668 11.359V30.2777C41.0668 33.5212 42.7133 35.1676 45.9536 35.1676H48.5204C51.7607 35.1676 53.4061 33.5223 53.4061 30.2777V22.2924H47.8911V30.0425C47.8911 30.2841 47.7944 30.3808 47.5034 30.3808H47.1489C46.8568 30.3808 46.7107 30.2841 46.7107 30.0425V11.6007C46.7107 11.359 46.8568 11.213 47.1479 11.213H47.5034C47.7944 11.213 47.89 11.359 47.89 11.5996L47.8911 18.9566ZM54.3899 34.9271H60.0757V11.4546C60.2819 11.4009 60.4917 11.3687 60.7051 11.358C61.0423 11.358 61.2378 11.5008 61.2378 11.8885V34.926H66.8989V10.198C66.8989 7.82447 65.7862 6.47015 63.6081 6.47015C62.2549 6.47015 61.1379 7.05226 60.0757 7.87387V0.903564H54.3899V34.9271ZM74.2902 11.2097C74.5824 11.2097 74.6779 11.3547 74.6779 11.5964V30.0435C74.6779 30.2852 74.5813 30.3819 74.2913 30.3819H73.953C73.6619 30.3819 73.5159 30.2852 73.5159 30.0435V11.6007C73.5159 11.359 73.6619 11.213 73.953 11.213L74.2902 11.2097ZM75.4523 35.1644C78.7431 35.1644 80.339 33.519 80.339 30.2755V11.359C80.339 8.11445 78.7431 6.46907 75.4523 6.46907H72.7415C69.5001 6.46907 67.8548 8.11445 67.8548 11.359V30.2777C67.8548 33.5212 69.5001 35.1676 72.7415 35.1676L75.4523 35.1644ZM81.3411 34.9271H87.0054V0.903564H81.3411V34.9271ZM94.429 11.2097C94.7168 11.2097 94.8167 11.3547 94.8167 11.5964V30.0435C94.8167 30.2852 94.7168 30.3819 94.43 30.3819H94.0735C93.7867 30.3819 93.6406 30.2852 93.6406 30.0435V11.6007C93.6406 11.359 93.7856 11.213 94.0735 11.213L94.429 11.2097ZM95.591 35.1644C98.8818 35.1644 100.478 33.519 100.478 30.2755V11.359C100.478 8.11445 98.8818 6.46907 95.591 6.46907H92.8802C89.6389 6.46907 87.9935 8.11445 87.9935 11.359V30.2777C87.9935 33.5212 89.6389 35.1676 92.8802 35.1676L95.591 35.1644ZM113.95 6.71072H108.385V7.82232C107.367 7.0005 106.113 6.52625 104.806 6.46907C102.628 6.46907 101.466 7.82232 101.466 10.1959V29.3615C101.466 31.7319 102.628 33.0862 104.806 33.0862C106.119 33.0615 107.384 32.5834 108.385 31.733V35.0688C108.385 35.4598 108.193 35.6015 107.855 35.6015H107.34C106.953 35.6015 106.807 35.4598 106.807 35.0688V33.6683H101.612V35.4104C101.612 38.2533 102.919 39.4755 105.773 39.4755H109.643C112.486 39.4755 113.95 38.0223 113.95 35.1687V6.71072ZM108.289 28.1995C108.083 28.2539 107.873 28.2861 107.66 28.2961C107.587 28.3076 107.513 28.3016 107.443 28.2788C107.373 28.256 107.309 28.217 107.257 28.1649C107.205 28.1129 107.167 28.0493 107.144 27.9793C107.121 27.9093 107.115 27.835 107.127 27.7623V11.8885C107.127 11.5008 107.322 11.359 107.66 11.359C107.873 11.3662 108.083 11.3981 108.289 11.4546V28.1995ZM35.6549 39.2242C38.5869 39.2242 40.0798 37.6067 40.0798 34.4255V6.63232H34.2651V26.6712C34.0548 26.7332 33.8377 26.7693 33.6186 26.7786C33.2641 26.7786 33.0708 26.6175 33.0708 26.1846V6.63984H27.2572V27.9621C27.2572 30.602 28.4483 32.1121 30.6865 32.1121C32.0269 32.1121 33.2212 31.5719 34.365 30.602V34.3084C34.365 34.738 34.1663 34.9024 33.8173 34.9024H33.2695C32.8721 34.9024 32.7228 34.7391 32.7228 34.3084V32.7479H27.3925V34.6854C27.3925 37.8838 28.7318 39.2123 31.6564 39.2123L35.6549 39.2242ZM123.332 39.2242C126.264 39.2242 127.757 37.6067 127.757 34.4255V6.63232H121.946V26.6712C121.736 26.7327 121.521 26.7685 121.303 26.7786C120.947 26.7786 120.756 26.6175 120.756 26.1846V6.63984H114.938V27.9621C114.938 30.602 116.133 32.1121 118.368 32.1121C119.711 32.1121 120.904 31.5719 122.046 30.602V34.3084C122.046 34.738 121.846 34.9024 121.502 34.9024H120.955C120.556 34.9024 120.407 34.7391 120.407 34.3084V32.7479H115.077V34.6854C115.077 37.8838 116.42 39.2123 119.342 39.2123L123.332 39.2242ZM138.983 34.9271V6.17694H142.131V1.04963H129.839V6.17694H132.984V34.9281L138.983 34.9271Z" fill="white"/>
<path d="M146.922 11.2097C147.21 11.2097 147.305 11.3547 147.305 11.5964V30.0435C147.305 30.2852 147.21 30.399 146.922 30.399H146.567C146.279 30.399 146.133 30.3002 146.133 30.0446V11.6007C146.133 11.359 146.279 11.213 146.567 11.213L146.922 11.2097ZM148.08 35.1644C151.374 35.1644 152.97 33.519 152.97 30.2755V11.359C152.97 8.11445 151.374 6.46907 148.08 6.46907H145.365C142.12 6.46907 140.475 8.11445 140.475 11.359V30.2777C140.475 33.5212 142.12 35.1676 145.365 35.1676L148.08 35.1644ZM166.442 0.903564H160.781V7.82232C159.668 7.00178 158.557 6.46907 157.295 6.46907C155.12 6.46907 153.958 7.82232 153.958 10.1959V31.4397C153.958 33.8112 155.12 35.1687 157.295 35.1687C158.652 35.1687 159.814 34.5855 160.877 33.7145V34.9271H166.442V0.903564ZM160.781 30.1359C160.584 30.2283 160.37 30.2766 160.152 30.2787C160.08 30.2865 160.008 30.2781 159.94 30.2543C159.872 30.2305 159.81 30.1918 159.759 30.141C159.708 30.0903 159.669 30.0288 159.645 29.961C159.62 29.8932 159.612 29.8209 159.619 29.7493V11.8885C159.619 11.5008 159.814 11.359 160.152 11.359C160.365 11.3662 160.575 11.3981 160.781 11.4546V30.1359ZM167.429 31.7781C167.429 34.056 168.35 35.1687 170.478 35.1687C172.028 35.1687 172.995 34.5855 174.011 33.6189V34.9271H179.53V11.1636C179.53 8.06397 177.98 6.46907 174.835 6.46907H172.319C169.174 6.46907 167.625 8.06397 167.625 11.1625V17.4562H172.849V11.4557C172.849 11.1646 172.948 11.069 173.204 11.069H173.56C173.851 11.069 173.946 11.1646 173.946 11.4557V17.6989L170.364 18.9576C168.09 19.7782 167.461 20.6986 167.461 22.9229V31.7791L167.429 31.7781ZM173.286 30.5204C172.93 30.5204 172.707 30.3776 172.707 30.0371V23.4094C172.674 23.1866 172.719 22.9595 172.833 22.7656C172.948 22.5716 173.125 22.4225 173.335 22.3429L173.915 22.1013V30.4248C173.71 30.4806 173.498 30.5126 173.286 30.5204ZM188.915 39.2242C191.847 39.2242 193.34 37.6067 193.34 34.4255V6.63232H187.526V26.6712C187.314 26.7327 187.098 26.7685 186.878 26.7786C186.523 26.7786 186.332 26.6175 186.332 26.1846V6.63984H180.518V27.9621C180.518 30.602 181.708 32.1121 183.947 32.1121C185.287 32.1121 186.481 31.5719 187.625 30.602V34.3084C187.625 34.738 187.426 34.9024 187.078 34.9024H186.53C186.132 34.9024 185.983 34.7391 185.983 34.3084V32.7479H180.652V34.6854C180.652 37.8838 181.993 39.2123 184.917 39.2123L188.915 39.2242Z" fill="white"/>
</g>
</svg>
