<svg width="254" height="47" viewBox="0 0 254 47" fill="none" xmlns="http://www.w3.org/2000/svg">
<path d="M25.9543 12.954C25.9543 13.1624 25.9022 13.3709 25.798 13.5793L16.4438 36.144C16.2614 36.6391 16.0529 36.9257 15.7924 37.056C15.5318 37.1863 15.167 37.2384 14.6719 37.2384H11.6494C11.2065 37.2384 10.8417 37.1863 10.529 37.056C10.2163 36.9257 10.0079 36.6391 9.82547 36.1961L0.60154 13.2927C0.523371 13.0061 0.497314 12.8497 0.497314 12.7716C0.497314 12.3026 0.862103 12.042 1.59168 12.042H7.53251C8.00153 12.042 8.39237 12.1462 8.65294 12.3807C8.9135 12.6152 9.12195 12.9279 9.25223 13.3448L12.4832 22.8293C12.6656 23.3765 12.8219 24.0018 13.0304 24.6793C13.2388 25.3567 13.3691 25.9821 13.5255 26.5293H13.5776C13.7079 26.0342 13.8903 25.461 14.0726 24.8096C14.255 24.1321 14.4374 23.5067 14.6198 22.9335L18.0853 13.3448C18.2677 12.8237 18.4762 12.4849 18.7367 12.3026C18.9973 12.1202 19.4142 12.042 20.0135 12.042H24.7557C25.5374 12.068 25.9543 12.3547 25.9543 12.954Z" fill="white"/>
<path d="M49.1709 25.3829C49.1709 25.9822 49.0406 26.3991 48.754 26.5815C48.4674 26.7639 47.9984 26.8681 47.373 26.8681H33.2505C33.5632 28.4576 34.3188 29.6822 35.5695 30.516C36.8202 31.3498 38.2012 31.7667 39.7646 31.7667C40.885 31.7667 41.9533 31.6625 43.0216 31.4019C44.0899 31.1674 45.1061 30.8547 46.1223 30.4378C46.3308 30.3336 46.5392 30.2815 46.7216 30.2815C47.1385 30.2815 47.3991 30.516 47.5294 30.985C47.5554 31.1935 47.6336 31.4801 47.7639 31.8449C47.8942 32.2097 47.9984 32.6005 48.1026 32.9914C48.2068 33.3822 48.285 33.747 48.3892 34.1118C48.4674 34.4766 48.5195 34.7371 48.5195 34.9456C48.5195 35.2843 48.4153 35.5188 48.2329 35.6491C48.0505 35.7794 47.816 35.9097 47.5554 36.066C46.2005 36.6913 44.7153 37.1082 43.0998 37.3949C41.4582 37.6554 39.9209 37.8118 38.4357 37.8118C36.4033 37.8118 34.6054 37.4991 32.99 36.8998C31.3745 36.3005 29.9935 35.4406 28.8731 34.3202C27.7526 33.1998 26.8667 31.8449 26.2414 30.2294C25.616 28.6139 25.3033 26.79 25.3033 24.7836C25.3033 22.8294 25.616 21.0576 26.2674 19.4682C26.8928 17.8787 27.8047 16.4977 28.9512 15.3773C30.0977 14.2569 31.4526 13.371 33.0681 12.7456C34.6836 12.1203 36.4294 11.8076 38.3836 11.8076C39.9991 11.8076 41.4583 12.0942 42.7871 12.6675C44.116 13.2407 45.2625 14.0224 46.2005 15.0386C47.4773 16.3935 48.3111 17.8787 48.6758 19.5463C49.0406 21.2139 49.223 22.9336 49.223 24.7315L49.1709 25.3829ZM41.7709 22.0477C41.7709 21.5005 41.6928 20.9794 41.5364 20.4583C41.3801 19.9372 41.1456 19.4682 40.8068 19.0513C40.4681 18.6344 40.0512 18.2956 39.5822 18.0351C39.0871 17.7745 38.5399 17.6703 37.8885 17.6703C36.6118 17.6703 35.5695 18.1132 34.7878 18.9731C34.0062 19.8329 33.5111 20.8752 33.3547 22.0477H41.7709Z" fill="white"/>
<path d="M93.9347 13.423C93.9347 13.5272 93.9086 13.7096 93.8305 13.9702L84.1375 39.0363C83.5643 40.5476 82.9389 41.8243 82.2094 42.8666C81.4798 43.9088 80.6981 44.7687 79.7601 45.4201C78.8481 46.0715 77.7537 46.5405 76.5291 46.8271C75.3044 47.1138 74.7312 46.9574 73.0897 46.9574C72.5164 46.9574 71.9953 46.9314 71.5263 46.8793C71.0573 46.8271 70.5622 46.749 70.0671 46.6448C69.4678 46.5145 69.1552 46.2018 69.1552 45.6807C69.1552 45.4201 69.1812 45.4722 69.2073 45.3159L69.6502 42.137C69.7284 41.668 69.8326 41.3553 69.989 41.2251C70.1453 41.0948 70.3537 41.0166 70.6143 41.0166H70.8228H70.9791C71.3178 41.0427 71.6305 41.0948 71.9432 41.1208C72.2559 41.1469 72.5425 41.1729 72.803 41.1729C73.5587 41.1729 74.653 41.2251 75.3044 40.8082C75.8516 40.4434 76.4509 39.8962 76.8157 39.349C77.0763 38.9321 77.3629 38.4631 77.6234 37.942L78.327 36.1441L69.5199 13.892C69.4418 13.6315 69.4157 13.4491 69.4157 13.397C69.4157 13.1364 69.4939 12.928 69.6763 12.7716C69.8326 12.6153 70.0671 12.5371 70.3277 12.5371H76.1382C76.9199 12.5371 77.415 12.8758 77.6495 13.5533L82.1572 26.1906L86.0136 13.9963C86.3263 13.0322 86.9255 12.5371 87.8896 12.5371H93.1009C93.6481 12.5632 93.9347 12.8498 93.9347 13.423Z" fill="white"/>
<path d="M166.033 1.43709C166.033 0.60329 165.668 0.134277 164.939 0.134277L159.675 1.17653C158.894 1.28075 158.425 1.59343 158.425 2.60962V37.2905L163.636 37.2644C164.939 37.2644 165.981 36.1961 165.981 34.9194L166.033 1.43709Z" fill="white"/>
<path d="M177.028 1.43709C177.028 0.60329 176.663 0.134277 175.934 0.134277L170.67 1.17653C169.889 1.28075 169.42 1.59343 169.42 2.60962V37.2905L174.631 37.2644C175.934 37.2644 176.976 36.1961 176.976 34.9194L177.028 1.43709Z" fill="white"/>
<path d="M131.299 13.2146C131.299 13.3449 131.273 13.5272 131.195 13.7096L124.472 35.7011C124.342 36.1701 124.134 36.5349 123.873 36.7694C123.613 37.0039 123.17 37.1342 122.622 37.1342H118.714C118.167 37.1342 117.776 37.0039 117.542 36.7694C117.281 36.5089 117.072 36.1441 116.916 35.623L113.242 26.7378H113.138L109.751 35.7793C109.594 36.2483 109.36 36.587 109.099 36.8215C108.839 37.0561 108.422 37.1603 107.849 37.1603H103.758C103.289 37.1603 102.898 37.03 102.611 36.7434C102.325 36.4828 102.116 36.118 101.986 35.6751L95.3415 13.7096C95.3155 13.6054 95.2894 13.4751 95.2894 13.2927C95.2894 13.0322 95.4197 12.8237 95.6542 12.7195C95.8887 12.6153 96.2014 12.5371 96.5662 12.5371H101.856C102.403 12.5371 102.768 12.6413 103.028 12.8758C103.263 13.0843 103.419 13.397 103.471 13.7618L106.155 26.6596H106.207L110.402 13.7618C110.637 12.954 110.871 12.5371 111.731 12.5371H115.222C116.161 12.5371 116.734 12.9019 116.942 13.6054L120.642 26.8159H120.694L123.665 13.866C123.743 13.4491 123.899 13.1364 124.134 12.9019C124.394 12.6674 124.785 12.5371 125.306 12.5371H130.413C130.778 12.5371 131.013 12.6153 131.143 12.7456C131.247 12.9019 131.299 13.0582 131.299 13.2146Z" fill="white"/>
<path d="M155.193 25.3829C155.193 25.9822 155.062 26.3991 154.75 26.5815C154.463 26.7639 153.994 26.8681 153.369 26.8681H139.246C139.559 28.4576 140.315 29.6822 141.565 30.516C142.816 31.3498 144.197 31.7667 145.76 31.7667C146.881 31.7667 147.949 31.6625 149.017 31.4019C150.086 31.1674 151.102 30.8547 152.118 30.4378C152.327 30.3336 152.509 30.2815 152.717 30.2815C153.108 30.2815 153.395 30.516 153.525 30.985C153.551 31.1935 153.629 31.4801 153.76 31.8449C153.89 32.2097 153.994 32.6005 154.098 32.9914C154.203 33.3822 154.281 33.747 154.385 34.1118C154.463 34.4766 154.515 34.7371 154.515 34.9456C154.515 35.2843 154.411 35.5188 154.229 35.6491C154.046 35.7794 153.812 35.9097 153.551 36.066C152.196 36.6913 150.711 37.1082 149.096 37.3949C147.454 37.6554 145.917 37.8118 144.431 37.8118C142.399 37.8118 140.601 37.4991 138.986 36.8998C137.37 36.3005 135.989 35.4406 134.869 34.3202C133.748 33.1998 132.862 31.8449 132.237 30.2294C131.612 28.6139 131.299 26.79 131.299 24.7836C131.299 22.8294 131.612 21.0576 132.263 19.4682C132.915 17.8787 133.8 16.4977 134.947 15.3773C136.093 14.2569 137.474 13.371 139.064 12.7456C140.653 12.1203 142.425 11.8076 144.379 11.8076C145.995 11.8076 147.454 12.0942 148.809 12.6675C150.138 13.2407 151.284 14.0224 152.222 15.0386C153.499 16.3935 154.333 17.8787 154.698 19.5463C155.062 21.2139 155.245 22.9336 155.245 24.7315L155.193 25.3829ZM147.793 22.0477C147.793 21.5005 147.715 20.9794 147.558 20.4583C147.402 19.9372 147.167 19.4682 146.829 19.0513C146.49 18.6344 146.073 18.2956 145.604 18.0351C145.109 17.7745 144.562 17.6703 143.91 17.6703C142.634 17.6703 141.591 18.1132 140.81 18.9731C140.028 19.859 139.533 20.8752 139.377 22.0477H147.793Z" fill="white"/>
<path d="M67.2267 12.4328C66.7577 12.3286 66.2105 12.2244 65.8197 12.2244C62.8493 12.2244 61.3901 12.98 59.5662 15.1687L59.4619 13.6575C59.4098 12.9018 58.9669 12.6413 58.0028 12.6413H53.7817C52.9218 12.6413 52.3225 12.9018 52.3225 14.1004V37.2384L58.0288 37.2123C58.9408 37.2123 59.6964 36.4567 59.6964 35.5447V20.7187C60.9732 19.468 62.9535 19.0511 64.6211 19.0511C65.4809 19.0511 65.7415 19.2074 66.2366 19.2074C66.7056 19.2074 66.9401 18.9469 67.0443 18.3997L67.7999 13.6575C67.8781 13.0842 67.8781 12.5892 67.2267 12.4328Z" fill="white"/>
<path d="M203.71 15.3774C201.729 15.3774 199.619 16.107 198.055 17.3056C196.753 15.638 194.59 15.3774 193.391 15.3774C191.62 15.3774 189.848 15.9767 188.389 17.0972V16.7584C188.389 16.107 188.024 15.7162 187.424 15.7162H186.356C185.757 15.7162 185.392 16.107 185.392 16.7584V32.2619C185.392 32.9133 185.757 33.3041 186.356 33.3041H187.477C188.076 33.3041 188.441 32.9133 188.441 32.2619V19.9373C189.874 18.6605 191.515 17.931 192.948 17.931C195.372 17.931 196.336 19.1817 196.336 22.3605V32.288C196.336 32.9394 196.701 33.3302 197.3 33.3302H198.42C199.02 33.3302 199.384 32.9394 199.384 32.288V22.0739C199.384 21.0577 199.306 20.1978 199.098 19.4162C200.401 18.5042 201.99 17.957 203.215 17.957C205.794 17.957 206.81 19.2077 206.81 22.3866V32.314C206.81 32.9654 207.175 33.3563 207.774 33.3563H208.895C209.494 33.3563 209.859 32.9654 209.859 32.314V22.0739C209.781 17.6443 207.722 15.3774 203.71 15.3774Z" fill="white"/>
<path d="M215.487 10.4788C214.445 10.4788 213.663 11.2344 213.663 12.2506C213.663 13.2668 214.445 14.0224 215.487 14.0224C216.555 14.0224 217.363 13.2668 217.363 12.2506C217.363 11.2344 216.555 10.4788 215.487 10.4788Z" fill="white"/>
<path d="M216.035 15.7422H214.94C214.341 15.7422 213.976 16.133 213.976 16.7844V32.2879C213.976 32.9393 214.341 33.3302 214.94 33.3302H216.061C216.66 33.3302 217.025 32.9393 217.025 32.2879V16.7844C216.999 16.133 216.66 15.7422 216.035 15.7422Z" fill="white"/>
<path d="M229.714 15.3774C227.786 15.3774 225.831 16.0028 224.294 17.1232V16.7584C224.294 16.107 223.929 15.7162 223.33 15.7162H222.236C221.636 15.7162 221.271 16.107 221.271 16.7584V32.2619C221.271 32.9133 221.636 33.3042 222.236 33.3042H223.356C223.955 33.3042 224.32 32.9133 224.32 32.2619V19.9373C225.649 18.7648 227.655 17.931 229.14 17.931C232.007 17.931 232.58 19.6246 232.58 22.3605V32.288C232.58 32.9394 232.945 33.3302 233.544 33.3302H234.664C235.264 33.3302 235.629 32.9394 235.629 32.288V22.0478C235.629 17.5662 233.7 15.3774 229.714 15.3774Z" fill="white"/>
<path d="M253.164 7.84717C253.138 7.84717 253.112 7.84717 253.06 7.84717L251.679 8.02956C250.845 8.10773 250.845 8.78519 250.845 9.07181V16.9408C249.594 15.8986 247.796 15.4035 246.52 15.4035C241.803 15.4035 238.52 19.1816 238.52 24.5753C238.52 28.9527 240.475 33.6429 245.999 33.6429C247.822 33.6429 249.646 32.9654 250.975 31.8189V32.314C250.975 33.0175 251.314 33.3562 252.044 33.3562H253.06C253.555 33.3562 253.894 32.9393 253.894 32.314V8.81125C253.92 7.87322 253.294 7.84717 253.164 7.84717ZM250.871 20.4845V28.7182C249.907 30.0732 247.979 31.0894 246.363 31.0894C243.497 31.0894 241.647 28.5098 241.647 24.4971C241.647 20.4584 243.575 17.957 246.702 17.957C248.37 17.957 250.115 18.9992 250.871 20.4845Z" fill="white"/>
</svg>
